<svg width="15" height="16" viewBox="0 0 15 16" fill="none" xmlns="http://www.w3.org/2000/svg">
<path d="M7.39648 9C5.07055 9 3.17773 6.981 3.17773 4.5C3.17773 2.019 5.07055 0 7.39648 0C9.72242 0 11.6148 2.019 11.6148 4.5C11.6148 6.981 9.72242 9 7.39648 9ZM7.39648 1C5.58711 1 4.11523 2.57 4.11523 4.5C4.11523 6.43 5.58711 8 7.39648 8C9.20539 8 10.6773 6.43 10.6773 4.5C10.6773 2.57 9.20586 1 7.39648 1Z" fill="#959CA4"/>
<path d="M13.6488 16H1.35156L1.90891 10.647L4.51328 9.5355L4.86203 10.4645L2.77891 11.353L2.39875 15H12.6016L12.2214 11.353L10.1383 10.4645L10.487 9.5355L13.0914 10.647L13.6488 16Z" fill="#959CA4"/>
</svg>
