<svg width="12" height="13" viewBox="0 0 12 13" fill="none" xmlns="http://www.w3.org/2000/svg">
<path d="M0.1875 6.5C0.1875 7.55469 0.445312 8.51562 0.960938 9.40625C1.47656 10.2969 2.20312 11.0234 3.09375 11.5391C3.98438 12.0547 4.94531 12.3125 6 12.3125C7.03125 12.3125 8.01562 12.0547 8.90625 11.5391C9.79688 11.0234 10.5 10.2969 11.0156 9.40625C11.5312 8.51562 11.8125 7.55469 11.8125 6.5C11.8125 5.46875 11.5312 4.48438 11.0156 3.59375C10.5 2.70312 9.79688 2 8.90625 1.48438C8.01562 0.96875 7.03125 0.6875 6 0.6875C4.94531 0.6875 3.98438 0.96875 3.09375 1.48438C2.20312 2 1.47656 2.70312 0.960938 3.59375C0.445312 4.48438 0.1875 5.46875 0.1875 6.5ZM1.875 9.45312C1.92188 9.14844 2.03906 8.86719 2.25 8.63281C2.46094 8.39844 2.71875 8.23438 3.04688 8.14062L3.79688 7.92969C4.42969 8.49219 5.15625 8.75 6 8.75C6.82031 8.75 7.54688 8.49219 8.20312 7.92969L8.95312 8.14062C9.25781 8.23438 9.51562 8.39844 9.72656 8.63281C9.9375 8.86719 10.0781 9.14844 10.125 9.45312C9.65625 10.1094 9.04688 10.625 8.32031 11C7.59375 11.375 6.82031 11.5625 6 11.5625C5.15625 11.5625 4.38281 11.375 3.65625 11C2.92969 10.625 2.34375 10.1094 1.875 9.45312ZM3.375 5.375C3.375 4.90625 3.49219 4.48438 3.72656 4.0625C3.96094 3.66406 4.26562 3.33594 4.6875 3.10156C5.08594 2.86719 5.53125 2.75 6 2.75C6.46875 2.75 6.89062 2.86719 7.3125 3.10156C7.71094 3.33594 8.03906 3.66406 8.27344 4.0625C8.50781 4.48438 8.625 4.90625 8.625 5.375C8.625 5.84375 8.50781 6.28906 8.27344 6.6875C8.03906 7.10938 7.71094 7.41406 7.3125 7.64844C6.89062 7.88281 6.46875 8 6 8C5.53125 8 5.08594 7.88281 4.6875 7.64844C4.26562 7.41406 3.96094 7.10938 3.72656 6.6875C3.49219 6.28906 3.375 5.84375 3.375 5.375Z" fill="#959CA4"/>
</svg>
