<svg width="12" height="13" viewBox="0 0 12 13" fill="none" xmlns="http://www.w3.org/2000/svg">
<path d="M6 0.6875C7.03125 0.6875 8.01562 0.96875 8.90625 1.48438C9.79688 2 10.5 2.70312 11.0156 3.59375C11.5312 4.48438 11.8125 5.46875 11.8125 6.5C11.8125 7.55469 11.5312 8.51562 11.0156 9.40625C10.5 10.2969 9.79688 11.0234 8.90625 11.5391C8.01562 12.0547 7.03125 12.3125 6 12.3125C4.94531 12.3125 3.98438 12.0547 3.09375 11.5391C2.20312 11.0234 1.47656 10.2969 0.960938 9.40625C0.445312 8.51562 0.1875 7.55469 0.1875 6.5C0.1875 5.46875 0.445312 4.48438 0.960938 3.59375C1.47656 2.70312 2.20312 2 3.09375 1.48438C3.98438 0.96875 4.94531 0.6875 6 0.6875ZM7.33594 8.89062C7.38281 8.9375 7.45312 8.96094 7.54688 8.9375C7.61719 8.9375 7.6875 8.89062 7.73438 8.82031L8.39062 7.92969C8.4375 7.88281 8.4375 7.8125 8.4375 7.71875C8.4375 7.64844 8.39062 7.57812 8.34375 7.53125L6.84375 6.45312V3.21875C6.84375 3.14844 6.79688 3.07812 6.75 3.03125C6.70312 2.98438 6.63281 2.9375 6.5625 2.9375H5.4375C5.34375 2.9375 5.27344 2.98438 5.22656 3.03125C5.17969 3.07812 5.15625 3.14844 5.15625 3.21875V7.15625C5.15625 7.25 5.17969 7.34375 5.27344 7.39062L7.33594 8.89062Z" fill="#959CA4"/>
</svg>
