<svg width="40" height="41" viewBox="0 0 40 41" fill="none" xmlns="http://www.w3.org/2000/svg">
<path d="M28.8572 2.05768H11.1409C10.1447 2.05768 9.33594 2.88665 9.33594 3.9078V37.0935C9.33594 38.1159 10.1447 38.9436 11.1409 38.9436H28.8572C29.8534 38.9436 30.6622 38.1159 30.6622 37.0935V3.9078C30.6622 2.88665 29.8534 2.05768 28.8572 2.05768ZM29.3297 37.0935C29.3297 37.36 29.1184 37.5765 28.8584 37.5765H11.1422C10.8822 37.5765 10.6709 37.36 10.6709 37.0935V30.7513H29.3309V37.0935H29.3297ZM29.3297 29.3842H10.6697V7.54912H29.3297V29.3842ZM29.3297 6.1833H10.6697V3.9078C10.6697 3.6413 10.8809 3.42349 11.1409 3.42349H28.8572C29.1172 3.42349 29.3284 3.6413 29.3284 3.9078V6.1833H29.3297Z" fill="white"/>
<path d="M18.001 33.4778H21.9997V34.8436H18.001V33.4778Z" fill="white"/>
</svg>
