<svg width="14" height="15" viewBox="0 0 14 15" fill="none" xmlns="http://www.w3.org/2000/svg">
<path d="M13.6253 11.6116C13.6253 11.3326 13.5137 11.0536 13.3128 10.8527L10.0315 7.57143L13.3128 4.29018C13.5137 4.08929 13.6253 3.81027 13.6253 3.53125C13.6253 3.25223 13.5137 2.97321 13.3128 2.77232L11.7949 1.25446C11.594 1.05357 11.315 0.941963 11.036 0.941963C10.757 0.941963 10.478 1.05357 10.2771 1.25446L6.99582 4.53571L3.71456 1.25446C3.51367 1.05357 3.23465 0.941963 2.95564 0.941963C2.67662 0.941963 2.3976 1.05357 2.19671 1.25446L0.678851 2.77232C0.477958 2.97321 0.366351 3.25223 0.366351 3.53125C0.366351 3.81027 0.477958 4.08929 0.678851 4.29018L3.9601 7.57143L0.678851 10.8527C0.477958 11.0536 0.366351 11.3326 0.366351 11.6116C0.366351 11.8906 0.477958 12.1696 0.678851 12.3705L2.19671 13.8884C2.3976 14.0893 2.67662 14.2009 2.95564 14.2009C3.23465 14.2009 3.51367 14.0893 3.71456 13.8884L6.99582 10.6071L10.2771 13.8884C10.478 14.0893 10.757 14.2009 11.036 14.2009C11.315 14.2009 11.594 14.0893 11.7949 13.8884L13.3128 12.3705C13.5137 12.1696 13.6253 11.8906 13.6253 11.6116Z" fill="#FF0000"/>
</svg>
