<svg width="40" height="40" viewBox="0 0 40 40" fill="none" xmlns="http://www.w3.org/2000/svg">
<path d="M20.0016 1.34001C26.6154 1.34001 31.9966 6.72126 31.9966 13.3363C31.9966 15.44 31.4391 17.5125 30.3841 19.335L20.0004 37.3275L9.61535 19.3338C8.5616 17.5138 8.0041 15.44 8.0041 13.3363C8.0041 6.72126 13.3854 1.34001 20.0004 1.34001H20.0016ZM20.0016 18C22.5741 18 24.6654 15.9075 24.6654 13.3363C24.6654 10.765 22.5729 8.67251 20.0016 8.67251C17.4291 8.67251 15.3366 10.765 15.3366 13.3363C15.3366 15.9075 17.4291 18 20.0016 18ZM20.0016 0.00750732C12.6404 0.00750732 6.67285 5.97626 6.67285 13.3363C6.67285 15.7675 7.3266 18.0388 8.46285 20.0013L20.0004 39.9938L31.5379 20.0013C32.6741 18.0388 33.3279 15.7675 33.3279 13.3363C33.3279 5.97626 27.3604 0.00750732 20.0004 0.00750732H20.0016ZM20.0016 16.6675C18.1616 16.6675 16.6691 15.1763 16.6691 13.3363C16.6691 11.4975 18.1616 10.005 20.0016 10.005C21.8416 10.005 23.3329 11.4975 23.3329 13.3363C23.3329 15.1763 21.8416 16.6675 20.0016 16.6675Z" fill="white"/>
</svg>
