<svg width="17" height="16" viewBox="0 0 17 16" fill="none" xmlns="http://www.w3.org/2000/svg">
<path d="M8.5 16C4.98472 16 2.125 13.3085 2.125 10V7H14.875V10C14.875 13.3085 12.0148 16 8.5 16ZM3.1875 8V10C3.1875 12.757 5.57069 15 8.5 15C11.4293 15 13.8125 12.757 13.8125 10V8H3.1875Z" fill="#959CA4"/>
<path d="M8.5 13.5C7.62556 13.5 6.91369 12.834 6.90625 12.0125V11C6.90625 10.173 7.62131 9.5 8.5 9.5C9.37869 9.5 10.0938 10.173 10.0938 11V12.0125C10.0863 12.834 9.37391 13.5 8.5 13.5ZM8.5 10.5C8.20728 10.5 7.96875 10.7245 7.96875 11V12C7.96875 12.2755 8.20728 12.5 8.5 12.5C8.79272 12.5 9.03125 12.2755 9.03125 12V11C9.03125 10.7245 8.79272 10.5 8.5 10.5Z" fill="#959CA4"/>
<path d="M12.75 6H11.6875V3.843C11.6875 2.2755 10.2574 1 8.5 1C6.74262 1 5.3125 2.2755 5.3125 3.843V6H4.25V3.843C4.25 1.7235 6.15612 0 8.5 0C10.8439 0 12.75 1.7235 12.75 3.843V6Z" fill="#959CA4"/>
</svg>
