<svg width="11" height="16" viewBox="0 0 11 16" fill="none" xmlns="http://www.w3.org/2000/svg">
<path d="M9.76953 7.65234C9.98047 7.82812 10.0508 8.03906 10.0508 8.25C10.0508 8.49609 9.98047 8.70703 9.76953 8.84766L2.94922 15.668C2.80859 15.8438 2.59766 15.9141 2.35156 15.9141C2.14062 15.9141 1.92969 15.8438 1.75391 15.668L0.980469 14.8945C0.839844 14.7539 0.734375 14.543 0.734375 14.2969C0.734375 14.0859 0.804688 13.875 0.945312 13.6992L6.39453 8.25L0.945312 2.80078C0.804688 2.66016 0.734375 2.44922 0.734375 2.20312C0.734375 1.99219 0.839844 1.78125 0.980469 1.60547L1.75391 0.832031C1.92969 0.691406 2.14062 0.585938 2.35156 0.585938C2.59766 0.585938 2.80859 0.691406 2.94922 0.832031L9.76953 7.65234Z" fill="#FE8100"/>
</svg>
