<svg width="20" height="19" viewBox="0 0 20 19" fill="none" xmlns="http://www.w3.org/2000/svg">
<path d="M5.82031 1.6875C5.82031 1.45312 5.70312 1.21875 5.54688 1.02344C5.35156 0.867188 5.11719 0.75 4.88281 0.75H0.9375C0.664062 0.75 0.429688 0.867188 0.273438 1.02344C0.078125 1.21875 0 1.45312 0 1.6875V4.8125C0 5.08594 0.078125 5.32031 0.273438 5.47656C0.429688 5.67188 0.664062 5.75 0.9375 5.75H4.88281C5.11719 5.75 5.35156 5.67188 5.54688 5.47656C5.70312 5.32031 5.82031 5.08594 5.82031 4.8125V1.6875ZM12.9297 11.0625C12.9297 11.3359 12.8125 11.5703 12.6562 11.7266C12.4609 11.9219 12.2266 12 11.9922 12H8.00781C7.73438 12 7.5 11.9219 7.34375 11.7266C7.14844 11.5703 7.07031 11.3359 7.07031 11.0625V7.9375C7.07031 7.70312 7.14844 7.46875 7.34375 7.27344C7.5 7.11719 7.73438 7 8.00781 7H11.9922C12.2266 7 12.4609 7.11719 12.6562 7.27344C12.8125 7.46875 12.9297 7.70312 12.9297 7.9375V11.0625ZM14.1797 1.6875C14.1797 1.45312 14.2578 1.21875 14.4531 1.02344C14.6094 0.867188 14.8438 0.75 15.1172 0.75H19.0625C19.2969 0.75 19.5312 0.867188 19.7266 1.02344C19.8828 1.21875 20 1.45312 20 1.6875V4.8125C20 5.08594 19.8828 5.32031 19.7266 5.47656C19.5312 5.67188 19.2969 5.75 19.0625 5.75H15.1172C14.8438 5.75 14.6094 5.67188 14.4531 5.47656C14.2578 5.32031 14.1797 5.08594 14.1797 4.8125V1.6875ZM12.9297 4.8125C12.9297 5.08594 12.8125 5.32031 12.6562 5.47656C12.4609 5.67188 12.2266 5.75 11.9922 5.75H8.00781C7.73438 5.75 7.5 5.67188 7.34375 5.47656C7.14844 5.32031 7.07031 5.08594 7.07031 4.8125V1.6875C7.07031 1.45312 7.14844 1.21875 7.34375 1.02344C7.5 0.867188 7.73438 0.75 8.00781 0.75H11.9922C12.2266 0.75 12.4609 0.867188 12.6562 1.02344C12.8125 1.21875 12.9297 1.45312 12.9297 1.6875V4.8125ZM4.88281 7C5.11719 7 5.35156 7.11719 5.54688 7.27344C5.70312 7.46875 5.82031 7.70312 5.82031 7.9375V11.0625C5.82031 11.3359 5.70312 11.5703 5.54688 11.7266C5.35156 11.9219 5.11719 12 4.88281 12H0.9375C0.664062 12 0.429688 11.9219 0.273438 11.7266C0.078125 11.5703 0 11.3359 0 11.0625V7.9375C0 7.70312 0.078125 7.46875 0.273438 7.27344C0.429688 7.11719 0.664062 7 0.9375 7H4.88281ZM0 14.1875C0 13.9531 0.078125 13.7188 0.273438 13.5234C0.429688 13.3672 0.664062 13.25 0.9375 13.25H4.88281C5.11719 13.25 5.35156 13.3672 5.54688 13.5234C5.70312 13.7188 5.82031 13.9531 5.82031 14.1875V17.3125C5.82031 17.5859 5.70312 17.8203 5.54688 17.9766C5.35156 18.1719 5.11719 18.25 4.88281 18.25H0.9375C0.664062 18.25 0.429688 18.1719 0.273438 17.9766C0.078125 17.8203 0 17.5859 0 17.3125V14.1875ZM15.1172 12C14.8438 12 14.6094 11.9219 14.4531 11.7266C14.2578 11.5703 14.1797 11.3359 14.1797 11.0625V7.9375C14.1797 7.70312 14.2578 7.46875 14.4531 7.27344C14.6094 7.11719 14.8438 7 15.1172 7H19.0625C19.2969 7 19.5312 7.11719 19.7266 7.27344C19.8828 7.46875 20 7.70312 20 7.9375V11.0625C20 11.3359 19.8828 11.5703 19.7266 11.7266C19.5312 11.9219 19.2969 12 19.0625 12H15.1172ZM15.1172 18.25C14.8438 18.25 14.6094 18.1719 14.4531 17.9766C14.2578 17.8203 14.1797 17.5859 14.1797 17.3125V14.1875C14.1797 13.9531 14.2578 13.7188 14.4531 13.5234C14.6094 13.3672 14.8438 13.25 15.1172 13.25H19.0625C19.2969 13.25 19.5312 13.3672 19.7266 13.5234C19.8828 13.7188 20 13.9531 20 14.1875V17.3125C20 17.5859 19.8828 17.8203 19.7266 17.9766C19.5312 18.1719 19.2969 18.25 19.0625 18.25H15.1172ZM7.07031 14.1875C7.07031 13.9531 7.14844 13.7188 7.34375 13.5234C7.5 13.3672 7.73438 13.25 8.00781 13.25H11.9922C12.2266 13.25 12.4609 13.3672 12.6562 13.5234C12.8125 13.7188 12.9297 13.9531 12.9297 14.1875V17.3125C12.9297 17.5859 12.8125 17.8203 12.6562 17.9766C12.4609 18.1719 12.2266 18.25 11.9922 18.25H8.00781C7.73438 18.25 7.5 18.1719 7.34375 17.9766C7.14844 17.8203 7.07031 17.5859 7.07031 17.3125V14.1875Z" fill="#FE8100"/>
</svg>
